<?xml version="1.0" standalone="no"?>
<!DOCTYPE svg PUBLIC "-//W3C//DTD SVG 20010904//EN"
 "http://www.w3.org/TR/2001/REC-SVG-20010904/DTD/svg10.dtd">
<svg version="1.0" xmlns="http://www.w3.org/2000/svg"
 width="1920.000000pt" height="1280.000000pt" viewBox="0 0 1920.000000 1280.000000"
 preserveAspectRatio="xMidYMid meet">

<g transform="translate(0.000000,1280.000000) scale(0.100000,-0.100000)"
fill="#000000" stroke="none">
<path d="M9315 12794 c-27 -2 -120 -8 -205 -14 -1334 -94 -2678 -658 -3730
-1565 -1060 -913 -1836 -2297 -2084 -3715 -66 -377 -91 -674 -91 -1100 0 -341
10 -516 46 -800 161 -1282 736 -2532 1615 -3511 908 -1012 2258 -1752 3634
-1993 385 -68 668 -91 1110 -90 481 0 812 32 1250 120 987 197 1981 662 2768
1296 855 689 1520 1611 1946 2699 218 559 352 1145 408 1789 16 191 16 792 -1
985 -57 671 -198 1268 -436 1860 -679 1685 -1905 2911 -3590 3590 -576 232
-1164 373 -1800 431 -158 14 -727 27 -840 18z m597 -1839 c614 -65 1133 -311
1590 -753 168 -163 275 -291 399 -476 217 -324 351 -675 414 -1076 23 -143 31
-531 16 -697 -60 -641 -323 -1193 -792 -1662 -366 -366 -782 -606 -1254 -724
-250 -62 -343 -72 -685 -72 -248 0 -328 3 -425 19 -581 90 -1085 348 -1514
777 -469 469 -732 1021 -792 1662 -15 166 -7 554 16 697 63 401 197 752 414
1076 124 185 231 313 399 476 452 437 974 687 1577 753 164 18 471 18 637 0z
m-2703 -5178 c274 -269 543 -460 886 -627 370 -181 728 -284 1150 -332 142
-16 568 -16 710 0 422 48 780 151 1150 332 344 168 612 358 888 629 l147 145
117 -23 c379 -74 685 -239 948 -512 158 -165 275 -336 409 -598 208 -409 347
-848 436 -1376 l30 -177 -22 -31 c-12 -18 -58 -79 -102 -137 -833 -1095 -2083
-1854 -3424 -2080 -589 -99 -1275 -99 -1864 0 -1341 226 -2591 985 -3424 2080
-44 58 -90 119 -102 137 l-22 31 30 177 c89 528 228 967 436 1376 134 262 251
433 409 598 207 216 426 355 701 447 107 36 295 81 343 83 19 1 60 -34 170
-142z"/>
</g>
</svg>
